@startuml
skinparam handwritt4444444444en false
skinparam shadowing<<with_shadow>> true
left to right direction

package Plugin <<Frame>> {
    interface IIdentityResolver
    interface IDomainExtension
    interface IPlugable
    interface IModelAttachmentExt
    interface IDecideStepsExt
    class Pattern
    class Partner
}

note "hot reloadable" as N1
Plugin .. N1

interface IDomainService
interface IDomainStep
IDomainStep : execute()
interface IRevokableDomainStep
IRevokableDomainStep : rollback()
IPlugable <|-- IDomainExtension
IPlugable <|-- IIdentityResolver
IModelAttachmentExt : explain()
IModelAttachmentExt : render()
abstract StepsExecTemplate
abstract BaseDomainAbility
BaseDomainAbility : getExtension()
BaseDomainAbility : firstExtension()
BaseDomainAbility : defaultExtension()
StepsExecTemplate : execute()
DDD : {static} findAbility()
DDD : {static} findSteps()
IDecideStepsExt : decideSteps()
IIdentityResolver : match(IDomainModel)

IDomainService <|-- IDomainStep
IDomainStep <|-- IRevokableDomainStep
IDomainService <|-- BaseDomainAbility

IDomainExtension <|-- IDecideStepsExt
IDomainExtension <|-- IModelAttachmentExt

IIdentityResolver <|-- Pattern
IIdentityResolver <|-- Partner

BaseDomainAbility <-- DDD
IDomainStep <-- DDD

IDomainExtension <-- BaseDomainAbility: locate

IDomainExtension --> Pattern: bind
IDomainExtension --> Partner: bind

Container : loadPlugin()

Container --> Plugin : load

Partner : code
Pattern : code
IDomainExtension : code

StepsExecTemplate --> IDomainStep: orchestrate
@enduml
